Coordinates
version=1
nRows=30
nColumns=23
inDegrees=yes

Units are S.I. units (second, meters, Newtons, ...)
Angles are in degrees.

endheader
time	pelvis_tilt	pelvis_list	pelvis_rotation	pelvis_tx	pelvis_ty	pelvis_tz	hip_flexion_r	hip_adduction_r	hip_rotation_r	knee_angle_r	knee_angle_r_beta	ankle_angle_r	subtalar_angle_r	mtp_angle_r	hip_flexion_l	hip_adduction_l	hip_rotation_l	knee_angle_l	knee_angle_l_beta	ankle_angle_l	subtalar_angle_l	mtp_angle_l
    122.00000000	     17.03502155	     -6.18388047	      1.38770149	      0.03239477	      1.27100466	      0.18394571	     59.80674728	     -8.68745512	     -4.78830046	    109.47241595	      1.91065410	     -9.28353123	      0.00000000	      0.00000000	     14.68656722	    -13.47812155	     -4.35277879	     51.28247326	      0.89504801	    -13.81304195	      0.00000000	      0.00000000
    122.00888900	     16.98424435	     -6.11684953	      1.49562080	      0.03250095	      1.27107116	      0.18387467	     59.80528536	     -8.81548746	     -5.10504645	    107.94500959	      1.88399583	     -9.54237730	      0.00000000	      0.00000000	     15.04561720	    -13.69571208	     -4.35985380	     53.50084412	      0.93376588	    -12.56370529	      0.00000000	      0.00000000
    122.01777800	     17.13190387	     -5.51432682	      1.41074284	      0.03248526	      1.27125814	      0.18426417	     59.60422950	     -9.07197973	     -4.82195076	    106.47850244	      1.85840045	     -9.43161567	      0.00000000	      0.00000000	     15.11400927	    -13.42253985	     -4.74162018	     55.52123561	      0.96902837	    -12.64459211	      0.00000000	      0.00000000
    122.02666700	     17.19255616	     -5.49281938	      1.53361412	      0.03253997	      1.27141827	      0.18418208	     59.10404947	     -9.14194680	     -5.24309637	    104.63482367	      1.82622219	     -9.67245097	      0.00000000	      0.00000000	     15.54762026	    -13.72532624	     -4.67248452	     57.99735532	      1.01224481	    -11.40994150	      0.00000000	      0.00000000
    122.03555600	     17.33543891	     -4.81086017	      1.42239635	      0.03262357	      1.27150310	      0.18468256	     58.58096721	     -9.40658045	     -4.93481863	    102.91408278	      1.79618959	     -9.50185196	      0.00000000	      0.00000000	     15.77245438	    -13.40504667	     -5.04136381	     60.23688305	      1.05133194	    -11.48036720	      0.00000000	      0.00000000
    122.04444400	     17.51020084	     -4.78490824	      1.60587675	      0.03265119	      1.27171197	      0.18466160	     57.59369581	     -9.49709486	     -5.45512027	    100.80963544	      1.75946006	     -9.60130065	      0.00000000	      0.00000000	     16.25500989	    -13.72772684	     -4.86761614	     62.87131868	      1.09731152	    -10.33070351	      0.00000000	      0.00000000
    122.05333300	     17.71478099	     -4.36962657	      1.65035461	      0.03276033	      1.27186294	      0.18499172	     56.54810529	     -9.70339860	     -5.56375525	     98.72879437	      1.72314253	     -9.48145924	      0.00000000	      0.00000000	     16.65471714	    -13.67772220	     -4.93976391	     65.39485982	      1.14135562	     -9.84517371	      0.00000000	      0.00000000
    122.06222200	     17.95138853	     -3.91590773	      1.70577119	      0.03291993	      1.27200108	      0.18543999	     55.31511107	     -9.93246252	     -5.67302388	     96.54869960	      1.68509270	     -9.32526855	      0.00000000	      0.00000000	     17.08188360	    -13.59815027	     -4.98133860	     67.96240968	      1.18616782	     -9.36940128	      0.00000000	      0.00000000
    122.07111100	     18.21630516	     -3.39937849	      1.76920418	      0.03308672	      1.27209628	      0.18597191	     53.91807472	    -10.21082039	     -5.77245313	     94.28514794	      1.64558627	     -9.11507346	      0.00000000	      0.00000000	     17.54074020	    -13.46034701	     -5.02046513	     70.55804577	      1.23147021	     -8.95723869	      0.00000000	      0.00000000
    122.08000000	     18.33573923	     -2.42964911	      1.58666877	      0.03346426	      1.27192598	      0.18712005	     52.74329242	    -10.58830992	     -5.29836407	     92.09465645	      1.60735498	     -8.78934472	      0.00000000	      0.00000000	     18.06503002	    -12.91412476	     -5.41123476	     73.01942942	      1.27442946	     -9.12114673	      0.00000000	      0.00000000
    122.08888900	     18.73651055	     -2.17591144	      1.96883587	      0.03358008	      1.27225466	      0.18729437	     50.73342507	    -10.95276901	     -5.96007975	     89.51008311	      1.56224566	     -8.60290701	      0.00000000	      0.00000000	     18.65168098	    -12.95066320	     -4.98107709	     75.77430508	      1.32251111	     -8.22963604	      0.00000000	      0.00000000
    122.09777800	     19.01942438	     -1.49351490	      2.07173673	      0.03384737	      1.27231666	      0.18815414	     48.94048097	    -11.37228486	     -6.05967925	     87.01528255	      1.51870318	     -8.27006606	      0.00000000	      0.00000000	     19.27505055	    -12.63014536	     -4.96504747	     78.37006975	      1.36781575	     -8.00554899	      0.00000000	      0.00000000
    122.10666700	     19.09610201	     -0.41661612	      1.94467834	      0.03431888	      1.27198323	      0.18948857	     47.46843089	    -11.92662239	     -5.65067404	     84.64493782	      1.47733286	     -7.90535507	      0.00000000	      0.00000000	     20.06085254	    -11.96559668	     -5.31940249	     80.87417327	      1.41152060	     -8.17964475	      0.00000000	      0.00000000
    122.11555600	     19.39933667	      0.12025374	      2.39118372	      0.03440297	      1.27211844	      0.19003466	     45.29003257	    -12.51214224	     -6.25263669	     81.91212486	      1.42963628	     -7.62518939	      0.00000000	      0.00000000	     20.95808163	    -11.64353040	     -4.83513416	     83.52827629	      1.45784344	     -7.76385136	      0.00000000	      0.00000000
    122.12444400	     19.53773538	      0.97353577	      2.57353226	      0.03464208	      1.27195093	      0.19110046	     43.39029317	    -13.13004686	     -6.38819472	     79.29154080	      1.38389846	     -7.31445892	      0.00000000	      0.00000000	     21.96720774	    -11.08158583	     -4.75789623	     86.06144034	      1.50205549	     -7.76432595	      0.00000000	      0.00000000
    122.13333300	     19.59038514	      1.88628011	      2.78381380	      0.03483094	      1.27167830	      0.19217459	     41.52857323	    -13.81715560	     -6.52587029	     76.65980771	      1.33796605	     -7.05572129	      0.00000000	      0.00000000	     23.14951476	    -10.42284846	     -4.67052963	     88.55561548	      1.54558706	     -7.83739663	      0.00000000	      0.00000000
    122.14222200	     19.58445241	      2.74992150	      2.99450159	      0.03496710	      1.27131093	      0.19330532	     39.67266371	    -14.44273221	     -6.70984662	     74.01147728	      1.29174396	     -6.87279710	      0.00000000	      0.00000000	     24.48375982	     -9.81118685	     -4.57842116	     91.03239540	      1.58881503	     -7.96504531	      0.00000000	      0.00000000
    122.15111100	     19.49229751	      3.63116496	      3.21668663	      0.03507901	      1.27094333	      0.19444932	     37.87073270	    -15.08590655	     -6.91109281	     71.35000796	      1.24529256	     -6.79766344	      0.00000000	      0.00000000	     25.96877481	     -9.15567367	     -4.49852038	     93.42352899	      1.63054818	     -8.12455425	      0.00000000	      0.00000000
    122.16000000	     19.33199383	      4.48384303	      3.42117731	      0.03514405	      1.27052563	      0.19558997	     36.13040537	    -15.68063628	     -7.11121662	     68.71061257	      1.19922642	     -6.86061672	      0.00000000	      0.00000000	     27.59097883	     -8.52256055	     -4.45111698	     95.75672090	      1.67127006	     -8.30495795	      0.00000000	      0.00000000
    122.16888900	     19.11695305	      5.32361356	      3.62994809	      0.03517473	      1.27009793	      0.19667120	     34.45209721	    -16.26745347	     -7.31615026	     66.11571328	      1.15393688	     -7.10110179	      0.00000000	      0.00000000	     29.32379351	     -7.88293647	     -4.43109685	     98.01059498	      1.71060758	     -8.47420105	      0.00000000	      0.00000000
    122.17777800	     18.85614712	      6.11316879	      3.80789783	      0.03512540	      1.26969798	      0.19775145	     32.84693284	    -16.77604120	     -7.50807990	     63.56410200	      1.10940287	     -7.52149902	      0.00000000	      0.00000000	     31.15611043	     -7.29103103	     -4.43931494	    100.17403741	      1.74836678	     -8.61400774	      0.00000000	      0.00000000
    122.18666700	     18.56652777	      6.86732632	      3.94992387	      0.03505833	      1.26932052	      0.19876759	     31.31478390	    -17.23602565	     -7.65785703	     61.09591578	      1.06632489	     -8.11426825	      0.00000000	      0.00000000	     33.04772895	     -6.73821755	     -4.49512876	    102.24304171	      1.78447772	     -8.71161682	      0.00000000	      0.00000000
    122.19555600	     18.25310864	      7.57322488	      4.08225503	      0.03501006	      1.26900727	      0.19970477	     29.84832997	    -17.65687379	     -7.80521172	     58.72570146	      1.02495685	     -8.89704856	      0.00000000	      0.00000000	     34.99046516	     -6.23446215	     -4.59110080	    104.20164132	      1.81866173	     -8.74277504	      0.00000000	      0.00000000
    122.20444400	     17.94536950	      8.24422953	      4.16527072	      0.03493867	      1.26872207	      0.20058044	     28.45514667	    -18.03825576	     -7.90222536	     56.49661146	      0.98605189	     -9.79027579	      0.00000000	      0.00000000	     36.93749216	     -5.78308507	     -4.75177589	    106.04119303	      1.85076796	     -8.71684451	      0.00000000	      0.00000000
    122.21333300	     17.61901853	      8.83140484	      4.24699147	      0.03487634	      1.26847163	      0.20138063	     27.13459802	    -18.34190423	     -7.99643608	     54.38536270	      0.94920364	    -10.80922127	      0.00000000	      0.00000000	     38.92456622	     -5.40199145	     -4.89346085	    107.76750246	      1.88089774	     -8.62689472	      0.00000000	      0.00000000
    122.22222200	     17.31410550	      9.40239355	      4.28870715	      0.03483258	      1.26825335	      0.20209830	     25.88773971	    -18.64484070	     -8.04177757	     52.46084740	      0.91561452	    -11.89223424	      0.00000000	      0.00000000	     40.87135226	     -5.05238235	     -5.10361315	    109.34892045	      1.90849870	     -8.45593771	      0.00000000	      0.00000000
    122.23111100	     17.01565710	      9.90314833	      4.31898572	      0.03478051	      1.26803648	      0.20271932	     24.71669025	    -18.89677584	     -8.07773035	     50.71722265	      0.88518252	    -13.01871672	      0.00000000	      0.00000000	     42.80432110	     -4.76758537	     -5.31588169	    110.79230160	      1.93369045	     -8.21816377	      0.00000000	      0.00000000
    122.24000000	     16.73889441	     10.37238256	      4.32609182	      0.03474151	      1.26783170	      0.20325520	     23.62199614	    -19.13904983	     -8.07812573	     49.17920275	      0.85833901	    -14.13740523	      0.00000000	      0.00000000	     44.68197716	     -4.51614879	     -5.56552834	    112.07934979	      1.95615368	     -7.90222276	      0.00000000	      0.00000000
    122.24888900	     16.47335823	     10.77339108	      4.32373960	      0.03472554	      1.26761894	      0.20370216	     22.60721491	    -19.33551466	     -8.06291490	     47.85234961	      0.83518106	    -15.20962216	      0.00000000	      0.00000000	     46.51274898	     -4.32261679	     -5.81548121	    113.20739604	      1.97584180	     -7.53665169	      0.00000000	      0.00000000
    122.25777800	     16.22387244	     11.10997421	      4.31318145	      0.03468865	      1.26737424	      0.20402787	     21.67922525	    -19.50131669	     -8.04318707	     46.74667990	      0.81588348	    -16.22893349	      0.00000000	      0.00000000	     48.28873558	     -4.17373270	     -6.05788221	    114.17553429	      1.99273900	     -7.12155367	      0.00000000	      0.00000000
